# xmcd CD database file
#
# Track frame offsets:
#	150
#	39917
#	61920
#	104679
#	131000
#	144365
#	165187
#	196882
#	213683
#	238427
#	262178
#
# Disc length: 3995 seconds
#
# Revision: 0
# Processed by: cddbd v1.5.2PL0 Copyright (c) Steve Scherf et al.
# Submitted via: CDex 1.51
#
DISCID=a40f990b
DTITLE=David and Steve Gordon - Reiki Healing Light
DYEAR=2011
DGENRE=New Age
TTITLE0=Spheres Of The Angels (Flow Mix)
TTITLE1=Bridge Of Breath (Resonance Mix)
TTITLE2=Hidden Waters (Deep Wellness Mix)
TTITLE3=Sunlight Through The Trees
TTITLE4=Reiki Mantras
TTITLE5=The Return
TTITLE6=Flow Of Harmony (Beaming Mix)
TTITLE7=Sunrise In Paradise
TTITLE8=Healing Attunement
TTITLE9=Rainbow Reiki
TTITLE10=Life Force Energy
EXTD=YEAR: 2011
EXTT0=
EXTT1=
EXTT2=
EXTT3=
EXTT4=
EXTT5=
EXTT6=
EXTT7=
EXTT8=
EXTT9=
EXTT10=
PLAYORDER=
